<svg width="20" height="22" viewBox="0 0 20 22" fill="none" xmlns="http://www.w3.org/2000/svg">
<path d="M19 8.84223H17.6161M3.31532 8.84223H4.69927M11.1577 1V2.38392M5.61221 3.29731L6.5902 4.27621M16.7027 3.29731L15.7238 4.27621M11.7625 5.81006C7.69413 9.3612 3.31394 13.8276 1.75792 15.4376C1.39348 15.8144 1.27723 16.3639 1.48713 16.8436C1.60154 17.1043 1.7367 17.3889 1.87648 17.6311C2.01626 17.8733 2.19525 18.1325 2.36409 18.3618C2.67409 18.7839 3.2083 18.9573 3.71667 18.8305C5.889 18.2875 11.9475 16.7278 17.057 14.9804" stroke="#646464" stroke-width="1.5" stroke-linecap="round" stroke-linejoin="round"/>
<path d="M9.36964 8.00899C9.36964 8.00899 10.3343 8.97405 11.9696 11.8065C13.605 14.6389 13.9583 15.9569 13.9583 15.9569M9.86971 17.3108L10.1437 18.334C10.2157 18.6027 10.234 18.8829 10.1977 19.1586C10.1614 19.4344 10.0711 19.7003 9.93202 19.9412C9.79292 20.182 9.60775 20.3932 9.38707 20.5625C9.16639 20.7318 8.91452 20.8559 8.64584 20.9279C8.37716 20.9999 8.09694 21.0182 7.82118 20.9819C7.54541 20.9456 7.2795 20.8553 7.03863 20.7162C6.79776 20.5771 6.58664 20.3919 6.41733 20.1713C6.24802 19.9506 6.12383 19.6987 6.05186 19.43L5.82397 18.5776M11.4151 5.19824C11.4151 5.19824 12.5209 6.40733 14.7209 10.2182C16.9209 14.0291 17.4154 15.591 17.4154 15.591" stroke="#646464" stroke-width="1.5" stroke-linecap="round" stroke-linejoin="round"/>
</svg>
