<svg width="24" height="24" viewBox="0 0 24 24" fill="none" xmlns="http://www.w3.org/2000/svg">
<g clip-path="url(#clip0_7404_17894)">
<path fill-rule="evenodd" clip-rule="evenodd" d="M16.2332 16.4573L17.2391 17.4141L19.4557 15.1449C19.6423 14.9539 19.7595 14.8028 19.989 15.0402L20.7371 15.8091C20.9831 16.0532 20.9699 16.1961 20.7371 16.4236L17.6634 19.4649C17.168 19.9465 17.2605 19.9764 16.7668 19.4832L14.9734 17.6895C14.8783 17.5959 14.9023 17.4539 14.9949 17.3573L15.8618 16.454C15.9876 16.3329 16.0844 16.3264 16.2332 16.4573ZM5.4082 1.22353C5.4082 0.824428 5.80069 0.5 6.28575 0.5C6.771 0.5 7.16353 0.824428 7.16353 1.22353V4.24658C7.16353 4.64568 6.771 4.97011 6.28575 4.97011C5.80069 4.97011 5.4082 4.64568 5.4082 4.24658V1.22353ZM13.5877 1.22353C13.5877 0.824428 13.9801 0.5 14.4652 0.5C14.9505 0.5 15.343 0.824428 15.343 1.22353V4.24658C15.343 4.64568 14.9505 4.97011 14.4652 4.97011C13.9801 4.97011 13.5877 4.64568 13.5877 4.24658V1.22353ZM20.7511 7.08643V10.6302C20.5602 10.549 20.366 10.4761 20.1689 10.4117V7.08643H0.582188V19.0363C0.582188 19.8264 1.22545 20.4737 2.0115 20.4737H11.3103C11.4031 20.6734 11.5048 20.8688 11.6151 21.0592H1.81739C0.819797 21.0592 0 20.2348 0 19.2314L0.000140625 7.08643V3.2798C0.000140625 2.27573 0.819 1.45221 1.81739 1.45221H4.33233V4.36599C4.33233 6.74527 8.23931 6.74423 8.23931 4.36599V1.45221H12.5118V4.36599C12.5118 6.74513 16.4188 6.74461 16.4188 4.36599V1.45221H18.9335C19.9318 1.45221 20.751 2.27573 20.751 3.28003L20.7511 7.08643ZM3.80831 14.4988H6.22406C6.36956 14.4988 6.48844 14.6224 6.48844 14.7646V17.0281C6.48844 17.1703 6.36558 17.2937 6.22406 17.2937H3.80831C3.6668 17.2937 3.54394 17.1742 3.54394 17.0281V14.7646C3.54394 14.6185 3.66281 14.4988 3.80831 14.4988ZM14.5274 9.33843H16.9428C17.0883 9.33843 17.2073 9.46029 17.2073 9.60403V10.0867C16.1692 10.1864 15.1649 10.5105 14.2629 11.0369V9.60403C14.2629 9.45798 14.3819 9.33843 14.5274 9.33843ZM9.16097 9.33843H11.6445C11.79 9.33843 11.9089 9.46171 11.9089 9.60403V11.8677C11.9089 12.01 11.7863 12.1333 11.6445 12.1333H9.16097C9.01922 12.1333 8.89659 12.0137 8.89659 11.8677V9.60403C8.89659 9.45798 9.01547 9.33843 9.16097 9.33843ZM3.80831 9.33843H6.22406C6.36956 9.33843 6.48844 9.46171 6.48844 9.60403V11.8677C6.48844 12.01 6.36581 12.1333 6.22406 12.1333H3.80831C3.66656 12.1333 3.54394 12.0137 3.54394 11.8677V9.60403C3.54394 9.45798 3.66281 9.33843 3.80831 9.33843ZM9.16097 14.4988H11.2126C10.847 15.3582 10.6405 16.3024 10.6296 17.2937H9.16097C9.01936 17.2937 8.89659 17.1742 8.89659 17.0281V14.7646C8.89659 14.6185 9.01547 14.4988 9.16097 14.4988ZM13.6064 13.0473C14.7953 11.8516 16.3535 11.2537 17.9115 11.2537C19.4695 11.2537 21.0278 11.8516 22.2166 13.0473C23.4055 14.2428 24 15.8099 24 17.3768C24 18.9437 23.4055 20.5108 22.2166 21.7065C21.0278 22.902 19.4695 23.5 17.9115 23.5C16.3535 23.5 14.7953 22.902 13.6064 21.7065C12.4176 20.5108 11.823 18.9437 11.823 17.3768C11.823 15.8099 12.4176 14.2428 13.6064 13.0473ZM14.0877 13.5313C16.1995 11.4074 19.6234 11.4074 21.7353 13.5313C23.8471 15.6552 23.8471 19.0985 21.7353 21.2224C19.6234 23.3463 16.1995 23.3463 14.0877 21.2224C11.9758 19.0985 11.9758 15.6552 14.0877 13.5313Z" fill="black"/>
</g>
<defs>
<clipPath id="clip0_7404_17894">
<rect width="24" height="23" fill="white" transform="translate(0 0.5)"/>
</clipPath>
</defs>
</svg>
