<svg width="24" height="24" viewBox="0 0 24 24" fill="none" xmlns="http://www.w3.org/2000/svg">
<g clip-path="url(#clip0_7404_9878)">
<path d="M6.77447 21.2725C8.22891 22.081 9.85207 22.5024 11.5 22.4995C17.0574 22.4995 21.5625 17.7986 21.5625 11.9997C21.5625 6.20085 17.0574 1.49996 11.5 1.49996C5.94263 1.49996 1.43751 6.20085 1.43751 11.9997C1.43751 13.7847 1.86397 15.4636 2.6153 16.9336C2.7906 17.276 2.83182 17.6761 2.7303 18.0496L1.54772 22.3865L5.70497 21.1535C6.06279 21.0473 6.44616 21.0899 6.77447 21.2725ZM11.5 23.9994C9.61604 24.0022 7.76051 23.52 6.09788 22.5955L1.52664 23.9524C1.32143 24.0133 1.10439 24.0158 0.897926 23.9598C0.691465 23.9038 0.50308 23.7913 0.352239 23.6339C0.201398 23.4765 0.0935726 23.2799 0.0399058 23.0645C-0.013761 22.8491 -0.0113222 22.6226 0.0469701 22.4085L1.34647 17.6386C0.459809 15.9032 -0.00268558 13.9663 1.17308e-05 11.9997C1.17308e-05 5.37287 5.14913 0 11.5 0C17.8509 0 23 5.37287 23 11.9997C23 18.6266 17.8509 23.9994 11.5 23.9994ZM7.18751 9.74977C7.18751 9.55086 7.26323 9.3601 7.39803 9.21945C7.53282 9.0788 7.71563 8.99978 7.90626 8.99978H15.0938C15.2844 8.99978 15.4672 9.0788 15.602 9.21945C15.7368 9.3601 15.8125 9.55086 15.8125 9.74977C15.8125 9.94867 15.7368 10.1394 15.602 10.2801C15.4672 10.4207 15.2844 10.4997 15.0938 10.4997H7.90626C7.71563 10.4997 7.53282 10.4207 7.39803 10.2801C7.26323 10.1394 7.18751 9.94867 7.18751 9.74977ZM7.18751 14.2497C7.18751 14.0508 7.26323 13.86 7.39803 13.7193C7.53282 13.5787 7.71563 13.4997 7.90626 13.4997H12.2188C12.4094 13.4997 12.5922 13.5787 12.727 13.7193C12.8618 13.86 12.9375 14.0508 12.9375 14.2497C12.9375 14.4486 12.8618 14.6393 12.727 14.78C12.5922 14.9206 12.4094 14.9996 12.2188 14.9996H7.90626C7.71563 14.9996 7.53282 14.9206 7.39803 14.78C7.26323 14.6393 7.18751 14.4486 7.18751 14.2497Z" fill="black" stroke="black" stroke-width="0.4"/>
</g>
<defs>
<clipPath id="clip0_7404_9878">
<rect width="24" height="24" fill="white"/>
</clipPath>
</defs>
</svg>
