<svg width="21" height="22" viewBox="0 0 21 22" fill="none" xmlns="http://www.w3.org/2000/svg">
<g clip-path="url(#clip0_6283_90889)">
<path d="M14.5413 0.5C14.5902 0.5 14.6391 0.5 14.6907 0.5C14.8106 1.98096 14.2453 3.08754 13.5583 3.88888C12.8842 4.68469 11.9612 5.45653 10.4682 5.33942C10.3686 3.87966 10.9348 2.85516 11.6209 2.05566C12.2572 1.31057 13.4237 0.647543 14.5413 0.5Z" fill="black"/>
<path d="M19.0607 15.9146C19.0607 15.9293 19.0607 15.9422 19.0607 15.9561C18.6411 17.2268 18.0427 18.3158 17.3123 19.3265C16.6456 20.244 15.8286 21.4788 14.3698 21.4788C13.1092 21.4788 12.2719 20.6682 10.98 20.6461C9.61335 20.624 8.8618 21.3239 7.6123 21.5C7.46936 21.5 7.32643 21.5 7.18627 21.5C6.26873 21.3672 5.52825 20.6406 4.9888 19.9858C3.3981 18.0512 2.16888 15.5522 1.94019 12.3542C1.94019 12.0406 1.94019 11.728 1.94019 11.4145C2.03701 9.12575 3.14912 7.26486 4.62731 6.36301C5.40745 5.88349 6.4799 5.47498 7.67408 5.65756C8.18587 5.73687 8.70873 5.91208 9.16703 6.08544C9.60136 6.25235 10.1445 6.54836 10.6591 6.53268C11.0076 6.52254 11.3544 6.34087 11.7057 6.2127C12.7348 5.84107 13.7436 5.41504 15.0734 5.61515C16.6714 5.85675 17.8057 6.5668 18.5065 7.66231C17.1546 8.52267 16.0859 9.8192 16.2685 12.0333C16.4308 14.0445 17.6 15.2211 19.0607 15.9146Z" fill="black"/>
</g>
<defs>
<clipPath id="clip0_6283_90889">
<rect width="21" height="21" fill="white" transform="translate(0 0.5)"/>
</clipPath>
</defs>
</svg>
