<svg width="24" height="24" viewBox="0 0 24 24" fill="none" xmlns="http://www.w3.org/2000/svg">
<path d="M2.5 19V7H21.5V19C21.5 20.1 20.6 21 19.5 21H4.5C3.4 21 2.5 20.1 2.5 19Z" fill="#7C7C7C"/>
<path d="M21.5 5V8H2.5V5C2.5 3.9 3.4 3 4.5 3H19.5C20.6 3 21.5 3.9 21.5 5Z" fill="black"/>
<path d="M16.5 6.5C17.3284 6.5 18 5.82843 18 5C18 4.17157 17.3284 3.5 16.5 3.5C15.6716 3.5 15 4.17157 15 5C15 5.82843 15.6716 6.5 16.5 6.5Z" fill="black"/>
<path d="M7.5 6.5C8.32843 6.5 9 5.82843 9 5C9 4.17157 8.32843 3.5 7.5 3.5C6.67157 3.5 6 4.17157 6 5C6 5.82843 6.67157 6.5 7.5 6.5Z" fill="black"/>
<path d="M16.5 1.5C15.95 1.5 15.5 1.95 15.5 2.5V5C15.5 5.55 15.95 6 16.5 6C17.05 6 17.5 5.55 17.5 5V2.5C17.5 1.95 17.05 1.5 16.5 1.5ZM7.5 1.5C6.95 1.5 6.5 1.95 6.5 2.5V5C6.5 5.55 6.95 6 7.5 6C8.05 6 8.5 5.55 8.5 5V2.5C8.5 1.95 8.05 1.5 7.5 1.5Z" fill="#BDBDBD"/>
<path d="M11.1 17.65C11.1 17.55 11.1 17.4 11.15 17.3C11.2 17.2 11.25 17.1 11.35 17.05C11.45 17 11.5 16.9 11.6 16.9C11.7 16.85 11.85 16.85 11.95 16.85C12.05 16.85 12.2 16.85 12.3 16.9L12.6 17.05C12.7 17.1 12.75 17.2 12.8 17.3C12.85 17.4 12.85 17.5 12.85 17.65C12.85 17.75 12.85 17.9 12.8 18C12.75 18.1 12.7 18.2 12.6 18.25C12.5 18.3 12.45 18.4 12.3 18.4C12.15 18.4 12.15 18.5 12 18.5C11.85 18.5 11.75 18.5 11.65 18.45C11.55 18.4 11.45 18.35 11.4 18.3C11.3 18.25 11.25 18.15 11.2 18.05C11.15 17.9 11.1 17.8 11.1 17.65ZM12.65 15.5H11.35L11.15 10H12.8L12.65 15.5Z" fill="white"/>
</svg>
