<svg width="23" height="22" viewBox="0 0 23 22" fill="none" xmlns="http://www.w3.org/2000/svg">
<path d="M11.9634 3C14.5627 3 16.9695 4.15297 18.5654 6.09442C18.6109 6.14945 18.6448 6.21307 18.6652 6.28148C18.6856 6.3499 18.692 6.42171 18.6841 6.49265C18.6761 6.56359 18.654 6.63221 18.619 6.69443C18.584 6.75664 18.5368 6.81118 18.4803 6.8548C18.3653 6.94497 18.2196 6.98677 18.0743 6.97134C17.9289 6.95591 17.7953 6.88446 17.7018 6.77215C17.0039 5.92678 16.1271 5.24687 15.1346 4.7815C14.1421 4.31612 13.0587 4.07689 11.9625 4.08106C7.90029 4.08106 4.60668 7.2978 4.60668 11.265C4.60668 15.2322 7.90029 18.4489 11.9625 18.4489C13.0745 18.4533 14.1732 18.2072 15.1771 17.7289C16.1809 17.2506 17.0642 16.5523 17.7613 15.6859C17.8532 15.5725 17.9858 15.4993 18.1308 15.4818C18.2758 15.4644 18.4219 15.5041 18.5382 15.5926C18.5952 15.6354 18.643 15.6893 18.6788 15.751C18.7145 15.8127 18.7375 15.881 18.7464 15.9518C18.7553 16.0226 18.7498 16.0944 18.7304 16.163C18.7109 16.2317 18.6779 16.2957 18.6332 16.3513C17.0397 18.3431 14.6007 19.53 11.9634 19.53C7.28785 19.53 3.5 15.8298 3.5 11.265C3.5 6.70024 7.28868 3 11.9634 3ZM17.6315 8.91774L19.868 11.1551C20.0846 11.3708 20.0887 11.7171 19.8779 11.9287L17.6927 14.1131C17.6414 14.1636 17.5807 14.2034 17.514 14.2303C17.4474 14.2572 17.376 14.2706 17.3041 14.2699C17.2322 14.2691 17.1612 14.2541 17.0951 14.2258C17.029 14.1975 16.9692 14.1564 16.9191 14.1049C16.8674 14.0547 16.8261 13.9949 16.7976 13.9288C16.7692 13.8626 16.7541 13.7915 16.7532 13.7195C16.7524 13.6475 16.7658 13.5761 16.7927 13.5093C16.8196 13.4425 16.8595 13.3817 16.91 13.3304L18.1886 12.0518H9.66734C9.59543 12.0529 9.52401 12.0398 9.4572 12.0132C9.39038 11.9866 9.32949 11.947 9.27803 11.8968C9.22656 11.8465 9.18554 11.7866 9.15732 11.7204C9.12909 11.6543 9.11423 11.5832 9.11359 11.5113C9.11359 11.2121 9.36154 10.9699 9.66734 10.9699H18.1547L16.867 9.68225C16.8154 9.63216 16.7742 9.57237 16.7459 9.50631C16.7175 9.44025 16.7024 9.36924 16.7016 9.29734C16.7007 9.22545 16.7141 9.1541 16.7409 9.08739C16.7678 9.02068 16.8075 8.95994 16.8579 8.90865C16.9092 8.85826 16.9699 8.81851 17.0366 8.79168C17.1033 8.76485 17.1747 8.75148 17.2466 8.75232C17.3185 8.75317 17.3895 8.76822 17.4556 8.79661C17.5216 8.82499 17.5814 8.86616 17.6315 8.91774Z" fill="black" stroke="black" stroke-width="0.5"/>
</svg>
