<svg width="18" height="20" viewBox="0 0 18 20" fill="none" xmlns="http://www.w3.org/2000/svg">
<path d="M11.6085 15.5385V16.2308C11.6085 16.9652 11.3214 17.6696 10.8104 18.1889C10.2994 18.7082 9.60627 19 8.88357 19C8.16086 19 7.46776 18.7082 6.95673 18.1889C6.4457 17.6696 6.1586 16.9652 6.1586 16.2308V15.5385M16.1933 14.1292C15.0999 12.7692 14.328 12.0769 14.328 8.32764C14.328 4.89423 12.6027 3.67101 11.1828 3.07692C10.9941 2.99817 10.8166 2.81731 10.7591 2.62043C10.51 1.75894 9.81176 1 8.88357 1C7.95538 1 7.25668 1.75938 7.01015 2.6213C6.95267 2.82034 6.77513 2.99817 6.58651 3.07692C5.16484 3.67188 3.44131 4.89077 3.44131 8.32764C3.43918 12.0769 2.66725 12.7692 1.57385 14.1292C1.12083 14.6925 1.51765 15.5385 2.31002 15.5385H15.4614C16.2495 15.5385 16.6437 14.69 16.1933 14.1292Z" stroke="#646464" stroke-width="1.5" stroke-linecap="round" stroke-linejoin="round"/>
</svg>
