<svg width="24" height="24" viewBox="0 0 24 24" fill="none" xmlns="http://www.w3.org/2000/svg">
<path d="M10.0206 0.250962C10.185 0.0902709 10.4078 0 10.6402 0C10.8726 0 11.0955 0.0902709 11.2598 0.250962L14.7654 3.67956C14.9297 3.8403 15.022 4.05828 15.022 4.28556C15.022 4.51285 14.9297 4.73083 14.7654 4.89157L11.2598 8.32017C11.0945 8.4763 10.8732 8.5627 10.6434 8.56075C10.4136 8.55879 10.1938 8.46865 10.0313 8.30972C9.86881 8.1508 9.77664 7.93582 9.77464 7.71108C9.77265 7.48633 9.86098 7.26982 10.0206 7.10816L12.0161 5.15643C11.8502 5.14728 11.6837 5.14271 11.5166 5.14271C6.67634 5.14271 2.75277 8.98017 2.75277 13.7142C2.75277 18.4482 6.67634 22.2857 11.5166 22.2857C16.0615 22.2857 19.7984 18.9025 20.2366 14.5705C20.2848 14.0991 20.6731 13.7142 21.1568 13.7142C21.6406 13.7142 22.0367 14.0999 21.9973 14.5714C21.5521 19.8514 17.0299 24 11.5166 24C5.70881 24 1 19.3945 1 13.7142C1 8.03388 5.70881 3.42841 11.5166 3.42841C11.6931 3.42841 11.8683 3.4327 12.0424 3.44127L10.0206 1.46297C9.85633 1.30223 9.76403 1.08425 9.76403 0.856966C9.76403 0.629681 9.85633 0.411701 10.0206 0.250962ZM15.6418 10.5368C15.806 10.6975 15.8983 10.9155 15.8983 11.1428C15.8983 11.37 15.806 11.588 15.6418 11.7488L10.8216 16.4631C10.6573 16.6238 10.4344 16.714 10.202 16.714C9.96965 16.714 9.74678 16.6238 9.58243 16.4631L7.39147 14.3202C7.23183 14.1586 7.1435 13.942 7.14549 13.7173C7.14749 13.4926 7.23966 13.2776 7.40215 13.1186C7.56463 12.9597 7.78444 12.8696 8.01423 12.8676C8.24401 12.8657 8.46539 12.9521 8.63068 13.1082L10.202 14.6451L14.4025 10.5368C14.5669 10.3761 14.7898 10.2858 15.0221 10.2858C15.2545 10.2858 15.4774 10.3761 15.6418 10.5368Z" fill="black"/>
</svg>
