<svg width="37" height="36" viewBox="0 0 37 36" fill="none" xmlns="http://www.w3.org/2000/svg">
<path fill-rule="evenodd" clip-rule="evenodd" d="M10.2438 3.27349C11.691 3.15733 13.0648 2.58812 14.1701 1.64671C15.4181 0.583775 17.0039 0 18.6432 0C20.2825 0 21.8683 0.583775 23.1163 1.64671C24.2216 2.58812 25.5954 3.15733 27.0426 3.27349C28.6771 3.40412 30.2116 4.11267 31.3711 5.27212C32.5305 6.43158 33.2391 7.9661 33.3697 9.6006C33.4845 11.0474 34.0537 12.4222 34.9965 13.5269C36.0594 14.7749 36.6432 16.3607 36.6432 18C36.6432 19.6393 36.0594 21.2251 34.9965 22.4731C34.0551 23.5784 33.4859 24.9522 33.3697 26.3994C33.2391 28.0339 32.5305 29.5684 31.3711 30.7279C30.2116 31.8873 28.6771 32.5959 27.0426 32.7265C25.5954 32.8427 24.2216 33.4119 23.1163 34.3533C21.8683 35.4162 20.2825 36 18.6432 36C17.0039 36 15.4181 35.4162 14.1701 34.3533C13.0648 33.4119 11.691 32.8427 10.2438 32.7265C8.60929 32.5959 7.07476 31.8873 5.91531 30.7279C4.75586 29.5684 4.04731 28.0339 3.91668 26.3994C3.80052 24.9522 3.23131 23.5784 2.2899 22.4731C1.22696 21.2251 0.643188 19.6393 0.643188 18C0.643188 16.3607 1.22696 14.7749 2.2899 13.5269C3.23131 12.4216 3.80052 11.0478 3.91668 9.6006C4.04731 7.9661 4.75586 6.43158 5.91531 5.27212C7.07476 4.11267 8.60929 3.40412 10.2438 3.27349ZM26.9841 15.0907C27.3939 14.6663 27.6207 14.098 27.6156 13.508C27.6105 12.9181 27.3739 12.3537 26.9567 11.9366C26.5395 11.5194 25.9752 11.2827 25.3852 11.2776C24.7953 11.2725 24.2269 11.4993 23.8025 11.9091L16.3932 19.3185L13.4838 16.4092C13.0595 15.9994 12.4911 15.7726 11.9012 15.7777C11.3112 15.7828 10.7469 16.0195 10.3297 16.4366C9.91253 16.8538 9.67589 17.4181 9.67076 18.0081C9.66564 18.5981 9.89243 19.1664 10.3023 19.5908L14.8024 24.0909C15.2243 24.5127 15.7965 24.7496 16.3932 24.7496C16.9898 24.7496 17.562 24.5127 17.9839 24.0909L26.9841 15.0907Z" fill="url(#paint0_linear_6283_90855)"/>
<defs>
<linearGradient id="paint0_linear_6283_90855" x1="18.6432" y1="0" x2="18.6432" y2="36" gradientUnits="userSpaceOnUse">
<stop stop-color="#1CADE3"/>
<stop offset="1" stop-color="#294DFF"/>
</linearGradient>
</defs>
</svg>
