<svg width="16" height="16" viewBox="0 0 16 16" fill="none" xmlns="http://www.w3.org/2000/svg">
<g clip-path="url(#clip0_6885_18916)">
<path d="M12.3717 8.21748C10.9048 8.61886 9.33858 8.42191 8.01673 7.66985C6.69489 6.91778 5.72538 5.67204 5.32097 4.20597C5.19651 3.73871 5.13273 3.25737 5.13121 2.77382C3.81241 3.27828 2.72631 4.25194 2.08127 5.50799C1.43624 6.76404 1.2777 8.21403 1.63606 9.57979C2.04047 11.0458 3.00997 12.2916 4.33182 13.0437C5.65367 13.7957 7.21988 13.9927 8.68677 13.5913C11.2848 12.8952 12.9932 10.5602 12.9769 8.02403C12.7794 8.10118 12.5779 8.1677 12.3732 8.22332L12.3717 8.21748Z" fill="url(#paint0_linear_6885_18916)" stroke="#72B9D5" stroke-width="0.140625" stroke-linecap="round" stroke-linejoin="round"/>
<path d="M8.54968 4.33366L9.36747 3.87363C9.37742 3.86831 9.38859 3.86566 9.39988 3.86593C9.41116 3.86621 9.42219 3.8694 9.43188 3.87519L10.244 4.33515C10.2563 4.34192 10.2705 4.34454 10.2844 4.34261C10.2984 4.34067 10.3113 4.3343 10.3214 4.32443C10.3314 4.31455 10.338 4.30171 10.3401 4.2878C10.3423 4.27389 10.3399 4.25966 10.3333 4.24721L9.8733 3.42942C9.86799 3.41946 9.86534 3.4083 9.86561 3.39701C9.86588 3.38573 9.86907 3.3747 9.87487 3.36501L10.3339 2.5494C10.3413 2.53675 10.3443 2.52196 10.3423 2.50742C10.3403 2.49288 10.3335 2.47943 10.3229 2.46923C10.3124 2.45903 10.2987 2.45267 10.2841 2.45117C10.2695 2.44968 10.2548 2.45313 10.2424 2.46098L9.4291 2.92359C9.41914 2.9289 9.40797 2.93155 9.39669 2.93128C9.3854 2.93101 9.37438 2.92782 9.36469 2.92202L8.54908 2.46301C8.53674 2.45623 8.52255 2.45362 8.5086 2.45555C8.49466 2.45748 8.48171 2.46386 8.47168 2.47373C8.46165 2.4836 8.45507 2.49644 8.45291 2.51035C8.45075 2.52426 8.45314 2.5385 8.45971 2.55094L8.92326 3.36779C8.92858 3.37775 8.93123 3.38892 8.93095 3.4002C8.93068 3.41149 8.92749 3.42251 8.9217 3.4322L8.46174 4.2443C8.45497 4.25664 8.45235 4.27083 8.45428 4.28477C8.45622 4.29872 8.46259 4.31166 8.47246 4.3217C8.48234 4.33173 8.49518 4.33831 8.50909 4.34047C8.523 4.34262 8.53723 4.34024 8.54968 4.33366Z" fill="url(#paint1_linear_6885_18916)" stroke="#FCD34D" stroke-width="0.0625" stroke-linecap="round" stroke-linejoin="round"/>
<path d="M8.35693 5.40172L8.89413 5.72078C8.90031 5.72454 8.90545 5.72979 8.9091 5.73604C8.91275 5.74229 8.91478 5.74935 8.91502 5.75659L8.92022 6.38005C8.91982 6.38983 8.92272 6.39945 8.92845 6.40738C8.93418 6.41531 8.94241 6.42109 8.95181 6.42378C8.96122 6.42647 8.97125 6.42592 8.98031 6.42222C8.98937 6.41852 8.99692 6.41188 9.00175 6.40338L9.32081 5.86618C9.32458 5.86 9.32982 5.85486 9.33607 5.85121C9.34232 5.84756 9.34938 5.84553 9.35662 5.84529L9.98009 5.8401C9.98986 5.84049 9.99949 5.83759 10.0074 5.83186C10.0153 5.82613 10.0211 5.81791 10.0238 5.8085C10.0265 5.79909 10.026 5.78906 10.0223 5.78C10.0186 5.77094 10.0119 5.76339 10.0034 5.75856L9.46621 5.4395C9.46003 5.43574 9.45489 5.43049 9.45124 5.42424C9.4476 5.41799 9.44556 5.41093 9.44532 5.40369L9.44013 4.78023C9.44053 4.77045 9.43763 4.76082 9.4319 4.7529C9.42617 4.74497 9.41794 4.73919 9.40853 4.7365C9.39913 4.73381 9.38909 4.73436 9.38003 4.73806C9.37098 4.74176 9.36343 4.74839 9.35859 4.7569L9.03954 5.2941C9.03577 5.30028 9.03052 5.30542 9.02427 5.30907C9.01802 5.31271 9.01096 5.31475 9.00373 5.31499L8.37675 5.32112C8.36756 5.3218 8.35882 5.32536 8.35178 5.33131C8.34474 5.33725 8.33976 5.34528 8.33756 5.35422C8.33536 5.36317 8.33605 5.37259 8.33953 5.38112C8.34301 5.38965 8.3491 5.39686 8.35693 5.40172Z" fill="url(#paint2_linear_6885_18916)" stroke="#FCD34D" stroke-width="0.0625" stroke-linecap="round" stroke-linejoin="round"/>
<path d="M10.3768 6.62098L11.3137 6.63345C11.325 6.63311 11.3361 6.63568 11.3461 6.64092C11.3561 6.64616 11.3645 6.65389 11.3706 6.66336L11.8464 7.46942C11.854 7.48066 11.8649 7.48924 11.8777 7.49398C11.8904 7.49872 11.9043 7.49938 11.9174 7.49586C11.9306 7.49234 11.9423 7.48483 11.9509 7.47436C11.9596 7.46388 11.9648 7.45098 11.9658 7.43742L11.9782 6.50056C11.9779 6.48929 11.9805 6.47813 11.9857 6.46815C11.9909 6.45817 11.9987 6.44972 12.0081 6.44361L12.8142 5.96789C12.8254 5.96026 12.834 5.94931 12.8388 5.93657C12.8435 5.92384 12.8442 5.90994 12.8406 5.89681C12.8371 5.88369 12.8296 5.87198 12.8191 5.86332C12.8087 5.85466 12.7958 5.84947 12.7822 5.84848L11.8453 5.83602C11.8341 5.83636 11.8229 5.83378 11.8129 5.82854C11.803 5.8233 11.7945 5.81557 11.7884 5.80611L11.3127 5.00005C11.305 4.98881 11.2941 4.98022 11.2814 4.97548C11.2686 4.97074 11.2547 4.97009 11.2416 4.97361C11.2285 4.97712 11.2168 4.98464 11.2081 4.99511C11.1994 5.00558 11.1943 5.01849 11.1933 5.03204L11.1808 5.96891C11.1811 5.98017 11.1786 5.99134 11.1733 6.00131C11.1681 6.01129 11.1604 6.01975 11.1509 6.02586L10.3448 6.50157C10.3336 6.50921 10.325 6.52016 10.3203 6.53289C10.3155 6.54563 10.3149 6.55952 10.3184 6.57265C10.3219 6.58578 10.3294 6.59748 10.3399 6.60614C10.3504 6.61481 10.3633 6.61999 10.3768 6.62098Z" fill="url(#paint3_linear_6885_18916)" stroke="#FCD34D" stroke-width="0.0625" stroke-linecap="round" stroke-linejoin="round"/>
</g>
<defs>
<linearGradient id="paint0_linear_6885_18916" x1="2.59063" y1="4.61844" x2="10.676" y2="12.7016" gradientUnits="userSpaceOnUse">
<stop stop-color="#86C3DB"/>
<stop offset="0.5" stop-color="#86C3DB"/>
<stop offset="1" stop-color="#5EAFCF"/>
</linearGradient>
<linearGradient id="paint1_linear_6885_18916" x1="8.4725" y1="2.47223" x2="10.3241" y2="4.32498" gradientUnits="userSpaceOnUse">
<stop stop-color="#FCD966"/>
<stop offset="0.5" stop-color="#FCD966"/>
<stop offset="1" stop-color="#FCCD34"/>
</linearGradient>
<linearGradient id="paint2_linear_6885_18916" x1="8.64107" y1="5.04327" x2="9.71927" y2="6.11701" gradientUnits="userSpaceOnUse">
<stop stop-color="#FCD966"/>
<stop offset="0.5" stop-color="#FCD966"/>
<stop offset="1" stop-color="#FCCD34"/>
</linearGradient>
<linearGradient id="paint3_linear_6885_18916" x1="10.7722" y1="5.4272" x2="12.3869" y2="7.04227" gradientUnits="userSpaceOnUse">
<stop stop-color="#FCD966"/>
<stop offset="0.5" stop-color="#FCD966"/>
<stop offset="1" stop-color="#FCCD34"/>
</linearGradient>
<clipPath id="clip0_6885_18916">
<rect width="11.6351" height="11.6351" fill="white" transform="translate(0 4.01123) rotate(-15)"/>
</clipPath>
</defs>
</svg>
